<!-- Theme Editor Live Icon -->
<svg width="128" height="128" viewBox="0 0 128 128" xmlns="http://www.w3.org/2000/svg">
  <!-- Background gradient -->
  <defs>
    <linearGradient id="bgGradient" x1="0%" y1="0%" x2="100%" y2="100%">
      <stop offset="0%" style="stop-color:#1e3a8a;stop-opacity:1" />
      <stop offset="50%" style="stop-color:#3b82f6;stop-opacity:1" />
      <stop offset="100%" style="stop-color:#06b6d4;stop-opacity:1" />
    </linearGradient>
    <linearGradient id="paletteGradient" x1="0%" y1="0%" x2="100%" y2="0%">
      <stop offset="0%" style="stop-color:#ff6b6b;stop-opacity:1" />
      <stop offset="25%" style="stop-color:#ffd93d;stop-opacity:1" />
      <stop offset="50%" style="stop-color:#6bcf7f;stop-opacity:1" />
      <stop offset="75%" style="stop-color:#4d9de0;stop-opacity:1" />
      <stop offset="100%" style="stop-color:#9b5de5;stop-opacity:1" />
    </linearGradient>
  </defs>
  
  <!-- Background circle -->
  <circle cx="64" cy="64" r="60" fill="url(#bgGradient)" stroke="#ffffff" stroke-width="2"/>
  
  <!-- Paint palette shape -->
  <path d="M64 20 C84 20, 100 36, 100 56 C100 76, 84 92, 64 92 L58 92 C48 92, 40 84, 40 74 L40 68 C40 58, 48 50, 58 50 L64 50 C74 50, 82 42, 82 32 C82 26, 78 20, 72 20 Z" fill="#ffffff" opacity="0.95"/>
  
  <!-- Color palette strokes -->
  <rect x="45" y="35" width="35" height="4" fill="url(#paletteGradient)" rx="2"/>
  <rect x="45" y="45" width="30" height="4" fill="url(#paletteGradient)" rx="2"/>
  <rect x="45" y="55" width="25" height="4" fill="url(#paletteGradient)" rx="2"/>
  <rect x="45" y="65" width="20" height="4" fill="url(#paletteGradient)" rx="2"/>
  
  <!-- Paint brush -->
  <rect x="75" y="70" width="3" height="20" fill="#8b4513" rx="1"/>
  <rect x="72" y="68" width="9" height="8" fill="#c0392b" rx="2"/>
  
  <!-- Color dots (theme colors) -->
  <circle cx="88" cy="38" r="4" fill="#ff6b6b"/>
  <circle cx="88" cy="50" r="4" fill="#ffd93d"/>
  <circle cx="88" cy="62" r="4" fill="#6bcf7f"/>
  
  <!-- Live indicator -->
  <circle cx="94" cy="26" r="3" fill="#00ff88">
    <animate attributeName="opacity" values="1;0.3;1" dur="2s" repeatCount="indefinite"/>
  </circle>
</svg>
